<?xml version="1.0" encoding="utf-8"?>
<!-- Generator: Adobe Illustrator 19.2.1, SVG Export Plug-In . SVG Version: 6.00 Build 0)  -->
<svg version="1.1" id="Layer_1" xmlns="http://www.w3.org/2000/svg" xmlns:xlink="http://www.w3.org/1999/xlink" x="0px" y="0px"
	 viewBox="0 0 96 96" style="enable-background:new 0 0 96 96;" xml:space="preserve">
<g>
	<path d="M48,25.5c7.3,0,8.2,0,11.1,0.2c2.7,0.1,4.1,0.6,5.1,0.9c1.3,0.5,2.2,1.1,3.2,2.1c1,1,1.6,1.9,2.1,3.2
		c0.4,1,0.8,2.4,0.9,5.1c0.1,2.9,0.2,3.8,0.2,11.1s0,8.2-0.2,11.1c-0.1,2.7-0.6,4.1-0.9,5.1c-0.5,1.3-1.1,2.2-2.1,3.2
		c-1,1-1.9,1.6-3.2,2.1c-1,0.4-2.4,0.8-5.1,0.9c-2.9,0.1-3.8,0.2-11.1,0.2s-8.2,0-11.1-0.2c-2.7-0.1-4.1-0.6-5.1-0.9
		c-1.3-0.5-2.2-1.1-3.2-2.1c-1-1-1.6-1.9-2.1-3.2c-0.4-1-0.8-2.4-0.9-5.1c-0.1-2.9-0.2-3.8-0.2-11.1s0-8.2,0.2-11.1
		c0.1-2.7,0.6-4.1,0.9-5.1c0.5-1.3,1.1-2.2,2.1-3.2c1-1,1.9-1.6,3.2-2.1c1-0.4,2.4-0.8,5.1-0.9C39.8,25.5,40.7,25.5,48,25.5
		 M48,20.5c-7.5,0-8.4,0-11.3,0.2c-2.9,0.1-4.9,0.6-6.7,1.3c-1.8,0.7-3.3,1.6-4.9,3.2c-1.5,1.5-2.5,3.1-3.2,4.9
		c-0.7,1.7-1.1,3.7-1.3,6.7c-0.1,2.9-0.2,3.9-0.2,11.3c0,7.5,0,8.4,0.2,11.3c0.1,2.9,0.6,4.9,1.3,6.7c0.7,1.8,1.6,3.3,3.2,4.9
		c1.5,1.5,3.1,2.5,4.9,3.2c1.7,0.7,3.7,1.1,6.7,1.3c2.9,0.1,3.9,0.2,11.3,0.2s8.4,0,11.3-0.2c2.9-0.1,4.9-0.6,6.7-1.3
		c1.8-0.7,3.3-1.6,4.9-3.2c1.5-1.5,2.5-3.1,3.2-4.9c0.7-1.7,1.1-3.7,1.3-6.7c0.1-2.9,0.2-3.9,0.2-11.3s0-8.4-0.2-11.3
		c-0.1-2.9-0.6-4.9-1.3-6.7c-0.7-1.8-1.6-3.3-3.2-4.9c-1.5-1.5-3.1-2.5-4.9-3.2c-1.7-0.7-3.7-1.1-6.7-1.3
		C56.4,20.5,55.5,20.5,48,20.5L48,20.5z"/>
	<path d="M48,33.9c-7.8,0-14.1,6.3-14.1,14.1S40.2,62.1,48,62.1S62.1,55.8,62.1,48S55.8,33.9,48,33.9z M48,57.2
		c-5.1,0-9.2-4.1-9.2-9.2c0-5.1,4.1-9.2,9.2-9.2c5.1,0,9.2,4.1,9.2,9.2C57.2,53.1,53.1,57.2,48,57.2z"/>
	<circle cx="62.7" cy="33.3" r="3.3"/>
</g>
</svg>
