
<svg width="56px" height="56px" viewBox="0 0 56 56" version="1.1" xmlns="http://www.w3.org/2000/svg" xmlns:xlink="http://www.w3.org/1999/xlink">
    <defs></defs>
    <g id="Page-1" stroke="none" stroke-width="1" fill="none" fill-rule="evenodd">
        <g id="Instagram-icon" fill="#FFFFFF" fill-rule="nonzero">
            <path d="M28,5.5 C35.3,5.5 36.2,5.5 39.1,5.7 C41.8,5.8 43.2,6.3 44.2,6.6 C45.5,7.1 46.4,7.7 47.4,8.7 C48.4,9.7 49,10.6 49.5,11.9 C49.9,12.9 50.3,14.3 50.4,17 C50.5,19.9 50.6,20.8 50.6,28.1 C50.6,35.4 50.6,36.3 50.4,39.2 C50.3,41.9 49.8,43.3 49.5,44.3 C49,45.6 48.4,46.5 47.4,47.5 C46.4,48.5 45.5,49.1 44.2,49.6 C43.2,50 41.8,50.4 39.1,50.5 C36.2,50.6 35.3,50.7 28,50.7 C20.7,50.7 19.8,50.7 16.9,50.5 C14.2,50.4 12.8,49.9 11.8,49.6 C10.5,49.1 9.6,48.5 8.6,47.5 C7.6,46.5 7,45.6 6.5,44.3 C6.1,43.3 5.7,41.9 5.6,39.2 C5.5,36.3 5.4,35.4 5.4,28.1 C5.4,20.8 5.4,19.9 5.6,17 C5.7,14.3 6.2,12.9 6.5,11.9 C7,10.6 7.6,9.7 8.6,8.7 C9.6,7.7 10.5,7.1 11.8,6.6 C12.8,6.2 14.2,5.8 16.9,5.7 C19.8,5.5 20.7,5.5 28,5.5 Z M28,0.5 C20.5,0.5 19.6,0.5 16.7,0.7 C13.8,0.8 11.8,1.3 10,2 C8.2,2.7 6.7,3.6 5.1,5.2 C3.6,6.7 2.6,8.3 1.9,10.1 C1.2,11.8 0.8,13.8 0.6,16.8 C0.5,19.7 0.4,20.7 0.4,28.1 C0.4,35.6 0.4,36.5 0.6,39.4 C0.7,42.3 1.2,44.3 1.9,46.1 C2.6,47.9 3.5,49.4 5.1,51 C6.6,52.5 8.2,53.5 10,54.2 C11.7,54.9 13.7,55.3 16.7,55.5 C19.6,55.6 20.6,55.7 28,55.7 C35.4,55.7 36.4,55.7 39.3,55.5 C42.2,55.4 44.2,54.9 46,54.2 C47.8,53.5 49.3,52.6 50.9,51 C52.4,49.5 53.4,47.9 54.1,46.1 C54.8,44.4 55.2,42.4 55.4,39.4 C55.5,36.5 55.6,35.5 55.6,28.1 C55.6,20.7 55.6,19.7 55.4,16.8 C55.3,13.9 54.8,11.9 54.1,10.1 C53.4,8.3 52.5,6.8 50.9,5.2 C49.4,3.7 47.8,2.7 46,2 C44.3,1.3 42.3,0.9 39.3,0.7 C36.4,0.5 35.5,0.5 28,0.5 Z" id="Shape"></path>
            <path d="M28,13.9 C20.2,13.9 13.9,20.2 13.9,28 C13.9,35.8 20.2,42.1 28,42.1 C35.8,42.1 42.1,35.8 42.1,28 C42.1,20.2 35.8,13.9 28,13.9 Z M28,37.2 C22.9,37.2 18.8,33.1 18.8,28 C18.8,22.9 22.9,18.8 28,18.8 C33.1,18.8 37.2,22.9 37.2,28 C37.2,33.1 33.1,37.2 28,37.2 Z" id="Shape"></path>
            <circle id="Oval" cx="42.7" cy="13.3" r="3.3"></circle>
        </g>
    </g>
</svg>